# xmcd CD database file
#
# Track frame offsets:
#	150
#	15903
#	32833
#	51977
#	67772
#	87403
#	98800
#	110218
#	126882
#	140112
#	156284
#	165468
#	178191
#	191717
#	206782
#	220870
#	237393
#	246781
#	262984
#	278608
#	290581
#	299922
#	317273
#	327357
#	339833
#
# Disc length: 4669 seconds
#
# Revision: 0
# Processed by: cddbd v1.5.2PL0 Copyright (c) Steve Scherf et al.
# Submitted via: CDex 1.70beta2
#
DISCID=7f123b19
DTITLE=Various Artist - Tros Country Top 100
DYEAR=2009
DGENRE=Country
TTITLE0=John Denver - Thank God I'm A Country Boy (Live)
TTITLE1=Johnny Cash - A Boy Named Sue (Live)
TTITLE2=Bobby Gentry - Ode To Billie Joe
TTITLE3=Nitty Gritty Dirt Band - An American Dream
TTITLE4=Kenny Rogers - Coward Of The Country
TTITLE5=Willie Nelson - On The Road Again
TTITLE6=Hank Locklin - Send Me A Pillow You Dream On
TTITLE7=Anne Murray - You Needed Me
TTITLE8=David Houston - Almost Persuaded
TTITLE9=Charlie Daniels Band - The Devil Went Down To Georgia
TTITLE10=Frankie Laine ft. Jimmy Carroll and His Orchestra - Rawhide
TTITLE11=Exile - Give Me One More Chance
TTITLE12=Loretta Lynn - Coal Miner's Daughter
TTITLE13=Joe Diffie - Home
TTITLE14=Ricky Van Shelton - I'll leave this world loving you
TTITLE15=Shenandoah - Next To You,Next To Me
TTITLE16=Barbara Mandrell - Tonight My Baby's Coming Home
TTITLE17=Vince Gill - Cinderella
TTITLE18=Kris Kristofferson - Why Me
TTITLE19=Bobby Bare - The Street Of Baltimore
TTITLE20=Flatt and Scruggs - The Ballad Of Jed Clampett
TTITLE21=Kenny Chesney - You Had Me From Hello
TTITLE22=George Hamilton IV - Abilene
TTITLE23=Hank Snow - I've Been Everywhere
TTITLE24=Floyd Cramer - San Antonio Rose
EXTD=YEAR: 2009
EXTT0=
EXTT1=
EXTT2=
EXTT3=
EXTT4=
EXTT5=
EXTT6=
EXTT7=
EXTT8=
EXTT9=
EXTT10=
EXTT11=
EXTT12=
EXTT13=
EXTT14=
EXTT15=
EXTT16=
EXTT17=
EXTT18=
EXTT19=
EXTT20=
EXTT21=
EXTT22=
EXTT23=
EXTT24=
PLAYORDER=
